<?xml version="1.0" encoding="utf-8"?>
<!-- Svg Vector Icons : http://www.onlinewebfonts.com/icon -->
<!DOCTYPE svg PUBLIC "-//W3C//DTD SVG 1.1//EN" "http://www.w3.org/Graphics/SVG/1.1/DTD/svg11.dtd">
<svg version="1.1" xmlns="http://www.w3.org/2000/svg" xmlns:xlink="http://www.w3.org/1999/xlink" x="0px" y="0px" viewBox="0 0 1000 1000" enable-background="new 0 0 1000 1000" xml:space="preserve">
<metadata> Svg Vector Icons : http://www.onlinewebfonts.com/icon </metadata>
<g><g transform="translate(0.000000,641.000000) scale(0.100000,-0.100000)"><path d="M1641.9,4731.7C790.8,3860.6,96.9,3146.7,100,3143.6c1.5-3.1,316.1,12.3,696.9,32.4c561.2,30.8,696.9,33.9,712.3,18.5c9.3-10.8,553.5-683,1208.8-1492.5C3374.9,892.5,3934.6,200.2,3962.4,164.7l52.4-64.7l-144.9-821.8c-80.2-451.7-144.9-823.3-143.4-824.9c4.6-4.6,505.7,501.1,1250.5,1262.8l598.3,613.7l117.2-106.4c155.7-138.8,4130.6-3651.1,4180-3692.8c50.9-43.2,240.5-257.5-1888.8,2133.9C6967.5-194.5,6127.2,749.1,6116.4,763c-18.5,20,98.7,151.1,934.4,1039.2c525.8,558.2,952.9,1017.6,951.3,1020.7c-3.1,3.1-416.3-95.6-919-218.9l-912.8-225.1l-66.3,58.6c-35.5,32.4-704.6,647.6-1486.4,1367.6l-1421.6,1309l-3.1,599.8l-4.6,599.8L1641.9,4731.7z"/></g></g>
</svg>