<?xml version="1.0" encoding="UTF-8" standalone="no"?>
<svg
   xmlns:dc="http://purl.org/dc/elements/1.1/"
   xmlns:cc="http://creativecommons.org/ns#"
   xmlns:rdf="http://www.w3.org/1999/02/22-rdf-syntax-ns#"
   xmlns:svg="http://www.w3.org/2000/svg"
   xmlns="http://www.w3.org/2000/svg"
   id="svg3825"
   xml:space="preserve"
   enable-background="new 0 0 1000 1000"
   viewBox="0 0 1000 1000"
   y="0px"
   x="0px"
   version="1.1"><defs
   id="defs3829" />
<metadata
   id="metadata3817"> Svg Vector Icons : http://www.onlinewebfonts.com/icon <rdf:RDF><cc:Work
     rdf:about=""><dc:format>image/svg+xml</dc:format><dc:type
       rdf:resource="http://purl.org/dc/dcmitype/StillImage" /><dc:title></dc:title></cc:Work></rdf:RDF></metadata>
<g
   style="fill:#bebec0;fill-opacity:1"
   id="g3823"><g
     style="fill:#bebec0;fill-opacity:1"
     id="g3821"
     transform="matrix(0.1,0,0,-0.1,0,641)"><path
       style="fill:#bebec0;fill-opacity:1"
       id="path3819"
       d="M 1641.9,4731.7 C 790.8,3860.6 96.9,3146.7 100,3143.6 c 1.5,-3.1 316.1,12.3 696.9,32.4 561.2,30.8 696.9,33.9 712.3,18.5 9.3,-10.8 553.5,-683 1208.8,-1492.5 C 3374.9,892.5 3934.6,200.2 3962.4,164.7 l 52.4,-64.7 -144.9,-821.8 c -80.2,-451.7 -144.9,-823.3 -143.4,-824.9 4.6,-4.6 505.7,501.1 1250.5,1262.8 l 598.3,613.7 117.2,-106.4 c 155.7,-138.8 4130.6,-3651.1 4180,-3692.8 50.9,-43.2 240.5,-257.5 -1888.8,2133.9 C 6967.5,-194.5 6127.2,749.1 6116.4,763 c -18.5,20 98.7,151.1 934.4,1039.2 525.8,558.2 952.9,1017.6 951.3,1020.7 -3.1,3.1 -416.3,-95.6 -919,-218.9 l -912.8,-225.1 -66.3,58.6 c -35.5,32.4 -704.6,647.6 -1486.4,1367.6 l -1421.6,1309 -3.1,599.8 -4.6,599.8 z" /></g></g>
</svg>